<?xml version="1.0" encoding="utf-8"?>
<!-- Generator: Adobe Illustrator 15.0.0, SVG Export Plug-In . SVG Version: 6.00 Build 0)  -->
<!DOCTYPE svg PUBLIC "-//W3C//DTD SVG 1.1//EN" "http://www.w3.org/Graphics/SVG/1.1/DTD/svg11.dtd">
<svg version="1.1" id="Layer_1" xmlns="http://www.w3.org/2000/svg" xmlns:xlink="http://www.w3.org/1999/xlink" x="0px" y="0px"
	 width="265.416px" height="199.657px" viewBox="0 0 265.416 199.657" enable-background="new 0 0 265.416 199.657"
	 xml:space="preserve">
<path fill-rule="evenodd" clip-rule="evenodd" fill="#414042" d="M58.167,19.472h152.355c12.272,0,22.312,10.791,22.312,23.971
	v126.022c0,13.181-10.039,23.971-22.312,23.971H23.338c-12.276,0-22.318-10.79-22.318-23.971V43.442V4.5C1.02,2.032,2.905,0,5.209,0
	h48.769c2.304,0,4.188,2.032,4.188,4.5V19.472z"/>
<path fill-rule="evenodd" clip-rule="evenodd" fill="#FFFFFF" d="M49.35,44.241h187.184c12.272,0,24.925,11.047,22.318,23.972
	l-20.473,101.252c-2.614,12.916-10.046,23.971-22.318,23.971H28.881c-12.272,0-24.929-11.055-22.314-23.971L27.036,68.213
	C29.65,55.288,37.078,44.241,49.35,44.241z"/>
<path fill="#414042" d="M132.709,38.02h103.824h0.116l0,0c0.877,0.008,1.769,0.063,2.669,0.155l0,0l0.435,0.055h0.015
	c0.729,0.093,1.497,0.217,2.266,0.372l0,0l0.077,0.008v0.008c0.854,0.171,1.699,0.388,2.521,0.629h0.008
	c0.807,0.24,1.645,0.527,2.467,0.853c4.143,1.638,7.975,4.182,11.016,7.362l0.016,0.016l0.023,0.023
	c0.613,0.644,1.202,1.318,1.745,2.009H259.9c0.551,0.698,1.078,1.428,1.559,2.172c2.475,3.856,3.957,8.316,3.957,13.11v0.125l0,0
	c-0.008,0.713-0.047,1.45-0.133,2.195v0.008l-0.038,0.364v0.008c-0.078,0.598-0.187,1.249-0.326,1.932l-20.31,100.508l0.047,0.016
	l-0.187,0.76v0.047l-0.163,0.659h-0.007l-0.047,0.256v0.008l-0.202,0.854v0.008c-0.341,1.45-0.729,2.847-1.155,4.174l-0.008,0.008
	l-0.016,0.038v0.008l-0.271,0.814l-0.008,0.016l-0.279,0.799v0.008c-0.512,1.389-1.07,2.716-1.66,3.979l-0.016,0.023l-0.008,0.008
	c-0.675,1.412-1.412,2.754-2.195,4.019h-0.008c-0.799,1.28-1.668,2.49-2.599,3.623c-4.841,5.864-11.419,9.604-19.767,9.604h-83.352
	v-12.442h83.352h0.031l0,0c1.993,0,3.816-0.466,5.461-1.296c0.543-0.271,1.063-0.59,1.552-0.931l0,0
	c2.606-1.815,4.732-4.616,6.314-7.944l0,0l0.016-0.039l0.264-0.558l0.264-0.582h-0.008c0.419-0.978,0.8-1.979,1.125-2.995l0,0
	l0.016-0.054l0.21-0.652h-0.008l0.201-0.659l0,0c0.226-0.775,0.419-1.559,0.598-2.335l0.179-0.876v-0.047l0.14-0.69h0.03
	L252.77,66.995l0,0l0.031-0.133l0,0l0.047-0.271l0.038-0.294c0.055-0.474,0.086-0.978,0.086-1.506v-0.03l0,0
	c0-1.614-0.373-3.188-1.04-4.655l0,0c-0.093-0.225-0.217-0.465-0.341-0.705v-0.008c-0.637-1.211-1.475-2.351-2.459-3.375
	l-0.047-0.055c-0.35-0.356-0.722-0.713-1.109-1.055l0,0c-0.372-0.326-0.791-0.651-1.21-0.962c-2.126-1.56-4.608-2.677-7.146-3.196
	l0,0l-0.116-0.023l-0.396-0.069l0,0l-0.435-0.063l0,0c-0.675-0.093-1.389-0.14-2.141-0.14H132.709V38.02z M49.35,38.02h83.359
	v12.436H49.35h-0.027l0,0c-1.997,0-3.82,0.466-5.461,1.296c-0.539,0.271-1.063,0.59-1.556,0.931l-0.004,0.008
	c-2.606,1.808-4.717,4.608-6.311,7.944l0,0l-0.02,0.038l-0.26,0.559l-0.256,0.574l0,0c-0.415,0.978-0.796,1.979-1.121,2.994h-0.004
	l-0.016,0.047v0.008l-0.202,0.636h0.004l-0.193,0.652h-0.008c-0.229,0.807-0.438,1.621-0.625,2.436h0.004l-0.151,0.791l-0.011,0.047
	L33,70.113h-0.03L12.637,170.675h0.004l-0.027,0.14l0,0l-0.042,0.256l-0.042,0.303c-0.059,0.474-0.089,0.985-0.089,1.513v0.031l0,0
	c0,1.613,0.38,3.188,1.04,4.654l0,0c0.112,0.241,0.229,0.489,0.349,0.714c0.636,1.21,1.478,2.343,2.455,3.367h0.004l0.046,0.046
	c0.349,0.365,0.726,0.729,1.109,1.063c0.376,0.325,0.784,0.651,1.206,0.962c2.13,1.56,4.608,2.684,7.153,3.196l0,0l0.124,0.022l0,0
	l0.38,0.07l0.435,0.062c0.679,0.086,1.396,0.141,2.145,0.141h103.824v12.442H28.885h-0.12v-0.008c-0.869,0-1.765-0.054-2.665-0.147
	h-0.011l-0.435-0.054l0,0c-0.726-0.086-1.489-0.218-2.277-0.38v0.008l-0.069-0.016h-0.004c-0.865-0.179-1.715-0.389-2.525-0.637l0,0
	c-0.826-0.24-1.656-0.527-2.463-0.854c-4.154-1.637-7.983-4.181-11.02-7.361l-0.015-0.016l-0.023-0.023h0.004
	c-0.613-0.651-1.203-1.318-1.746-2.001l0.004-0.008c-0.555-0.698-1.082-1.428-1.555-2.165C1.482,182.141,0,177.673,0,172.886v-0.124
	l0,0c0.004-0.714,0.05-1.442,0.128-2.195v-0.008l0.043-0.364v-0.008c0.074-0.598,0.182-1.249,0.318-1.939L20.868,67.452l0.063-0.411
	l0.008-0.046l0.047-0.334l0.05-0.039l0.132-0.62v-0.016l0.194-0.838v-0.008c0.337-1.443,0.726-2.847,1.163-4.189h0.004l0.016-0.038
	v-0.008l0.271-0.814v-0.008l0.287-0.808h0.004c0.505-1.389,1.063-2.723,1.656-3.987l0.016-0.022l0.004-0.008
	c0.675-1.412,1.412-2.754,2.199-4.019h0.004c0.803-1.28,1.676-2.498,2.606-3.623C34.42,41.751,41,38.02,49.35,38.02z"/>
</svg>
